<?xml version="1.0" encoding="utf-8"?>
<!-- Generator: Adobe Illustrator 23.0.2, SVG Export Plug-In . SVG Version: 6.00 Build 0)  -->
<svg version="1.1" id="Layer_1" xmlns="http://www.w3.org/2000/svg" xmlns:xlink="http://www.w3.org/1999/xlink" x="0px" y="0px"
	 viewBox="0 0 181 209" style="enable-background:new 0 0 181 209;" xml:space="preserve">
<style type="text/css">
	.st0{fill:#A17AB6;stroke:#99A5AB;stroke-width:10.6698;stroke-linecap:round;stroke-linejoin:round;stroke-miterlimit:10;}
	.st1{fill:#FFFFFF;}
	.st2{font-family:'Courier';}
	.st3{font-size:28px;}
</style>
<g id="surface2602">
	<path class="st0" d="M6.7,152.9l83.8,48.4l83.8-48.4V56.1L90.5,7.7L6.7,56.1V152.9z"/>
	<g transform="translate(0.000000,640.000000) scale(0.100000,-0.100000)">
		<path d="M250.3,5400.3l-12.1-0.5v-18v-18.2h-41.6H155v-19.3v-19.3h43.2h43.2l0.7-4.9c4.6-32,4.6-165.7,0-194.4l-0.8-4.6h-43.1H155
			v-19.3v-19.3h41.6h41.6v-18.6v-18.6l4.8-0.8c2.7-0.5,14.8-0.8,26.8-0.8s24.1,0.4,26.8,0.8l4.8,0.8v18.6v18.6h39.3H380v-18.6v-18.6
			l4.8-0.8c2.7-0.5,14.8-0.8,26.8-0.8s24.1,0.4,26.8,0.8l4.8,0.8v18.6v18.6h39.3h39.3v-18.6v-18.6l4.3-0.8c5.6-1.1,50.6-1.1,55.3,0
			l3.6,0.8v18.6v18.6h39.8h39.8v-18.6v-18.6l3.6-0.8c4.6-1.1,49.6-1.1,55,0l4.1,0.7v18.4v18.4l39.6,0.4l39.5,0.2v-18.6v-18.6
			l4.5-0.8c5.6-1.1,48.8-1.1,54.5,0l4.3,0.8v18.6v18.6h39.3h39.3v-18.6v-18.6l4.8-0.8c6.3-1.1,47.3-1.1,53.7,0l4.8,0.8v18.6v18.6
			h39.3h39.3v-18.6v-18.6l4.8-0.8c6.3-1.1,47.3-1.1,53.7,0l4.8,0.8v18.6v18.6h39.3h39.3v-18.6v-18.6l4.3-0.8
			c5.7-1.1,48.9-1.1,54.6,0l4.3,0.8v18.6v18.6l39.6-0.2l39.5-0.4l0.4-18.4l0.4-18.4l3.5-0.7c4.6-1.1,49.6-1.1,55,0l4.1,0.7v18.4
			v18.4l39.6,0.4l39.5,0.2v-18.6v-18.6l3.6-0.8c4.7-1.1,49.7-1.1,55.3,0l4.3,0.8v18.6v18.6h37.5h37.5v19.3v19.3h-39.1
			c-36.1,0-39.1,0.1-40,2c-0.4,1.2-1.5,17.3-2.6,36.1c-2.6,49.8-0.9,152.2,2.7,163.8c0.6,1.9,3.5,2,39.8,2h39.1v19.3v19.3h-37.5
			H1580v18v17.9l-15.8,0.7c-8.7,0.4-23,0.4-31.6,0l-15.8-0.7v-17.9v-18h-39.8H1437v17.9v18l-15.5,0.7c-8.6,0.4-22.6,0.4-31.1,0
			l-15.6-0.7v-18v-17.9h-39.8h-39.8v18v17.9l-15.8,0.7c-8.7,0.4-23,0.4-31.6,0l-15.8-0.7v-17.9v-18h-39.3h-39.3v18v17.9l-15.8,0.7
			c-8.7,0.4-23,0.4-31.6,0l-15.8-0.7v-17.9v-18h-39.3h-39.3v18v17.9l-15.8,0.7c-8.7,0.4-23,0.4-31.6,0l-15.8-0.7v-17.9v-18h-39.3
			h-39.3v18v17.9l-15.8,0.7c-8.7,0.4-23,0.4-31.6,0l-15.8-0.7v-18v-17.9l-39.5,0.2l-39.6,0.4v17.7v17.7l-15.5,0.7
			c-8.6,0.4-22.7,0.4-31.4,0l-15.8-0.7v-17.9v-18h-39.8h-39.8v18v17.9l-15.8,0.7c-8.7,0.4-23,0.4-31.6,0l-15.8-0.7v-17.9v-18h-39.3
			h-39.3v18v17.9l-15.8,0.7c-8.7,0.4-23,0.4-31.6,0l-15.8-0.7v-17.9v-18h-39.3h-39.3v18.2v18.2h-7.4c-4.1,0-13,0.2-19.7,0.5
			S256.8,5400.5,250.3,5400.3z M384,5322.2c0.4-1.4,1.3-11.4,2.1-21.9c2.8-36.2,1.3-164.3-2.1-176.6l-0.7-2.7h-42.5h-42.4l-0.8,3.8
			c-4.6,23.1-4.6,170.4,0,196.4l0.7,3.8h42.5h42.5L384,5322.2z M526.7,5317.3c2.3-21.3,3.5-66.7,2.9-110.2
			c-0.7-43.5-2.5-82.9-3.9-85.2c-0.4-0.5-19.8-0.9-43.1-0.9h-42.5l-0.8,5.6c-4.5,32.5-4.5,160,0.1,193l0.7,5.3l42.9-0.2l42.9-0.4
			L526.7,5317.3z M667.7,5323.5c4.6-12.1,5.3-148.1,1.1-194.5l-0.8-8h-43h-43.1l-0.7,8c-4.1,44.6-4.1,148,0,188.7l0.7,7.3h42.7
			C657.6,5324.9,667.3,5324.6,667.7,5323.5z M810.5,5318.6c4.3-37,4.3-150.8,0-190.8l-0.8-6.8h-43h-43l-0.7,8.6
			c-4.3,49.7-3.6,180.9,0.9,193.9c0.4,1.1,10.1,1.4,43.1,1.4h42.7L810.5,5318.6z M952.3,5320c4.6-32.6,4.5-165.7-0.1-194.5l-0.7-4.5
			h-42.4c-39.4,0-42.5,0.1-43.4,2.1c-0.4,1.1-1.5,17.8-2.6,37.1c-2.5,50.5-0.8,151.4,2.7,162.7c0.6,1.9,3.6,2,43.2,2h42.5
			L952.3,5320z M1094.1,5321.2c2.2-11.4,3.5-44.4,3.5-92.9c0-48.9-1.6-97.7-3.5-104.5l-0.7-2.7h-42.5h-42.5l-0.7,2.8
			c-3.3,13-4.8,143.6-2.1,176.5c0.8,9.4,1.8,18.8,2.1,20.9l0.7,3.8h42.5h42.5L1094.1,5321.2z M1235.9,5322.9
			c0.4-1.2,1.3-10,2.1-19.7c2.9-34.7,1.3-171.4-2.1-180.5c-0.6-1.5-6-1.8-43.2-1.8h-42.4l-0.8,4.7c-4.5,28-4.5,161.6,0,193.7
			l0.8,5.5h42.5C1232.3,5324.9,1235.4,5324.8,1235.9,5322.9z M1377.9,5323.5c4.6-13,5.3-143.8,0.9-193.9l-0.7-8.6h-43H1292l-0.7,7.4
			c-4.2,42.1-4.2,150.1,0,189.8l0.8,6.7h42.7C1367.8,5324.9,1377.5,5324.6,1377.9,5323.5z M1520.7,5317.2c4.2-41,4.2-150.8,0-189.4
			l-0.8-6.8h-43h-43l-0.7,8c-4.3,47.3-3.6,181.6,0.9,194.5c0.4,1.1,10.1,1.4,43.1,1.4h42.7L1520.7,5317.2z"/>
	</g>
	<text transform="matrix(1 0 0 1 30.2593 68.2241)" class="st1 st2 st3">trackdf</text>
</g>
</svg>
